<?xml version="1.0" encoding="utf-8"?>
<!-- Generator: Adobe Illustrator 27.9.3, SVG Export Plug-In . SVG Version: 9.03 Build 53313)  -->
<svg version="1.1" id="Layer_1" xmlns="http://www.w3.org/2000/svg" xmlns:xlink="http://www.w3.org/1999/xlink" x="0px" y="0px"
	 viewBox="0 0 31.8 17.9" style="enable-background:new 0 0 31.8 17.9;" xml:space="preserve">
<style type="text/css">
	.st0{fill:#2196F3;}
	.st1{fill:#10519D;}
</style>
<g>
	<path class="st0" d="M14.8,9.4l-4.6,4.7H3.5V8.2V4.2h11.4V0.9H4.4c-2.3,0-4.2,1.9-4.2,4.2v8.1c0,2.3,1.9,4.2,4.2,4.2h7.2l3.3-3.3
		V9.4z"/>
	<g>
		<path class="st1" d="M27.6,0.9H17.2v3.3H28v3.9v5.9h-6.3l-4.6-4.7V14l3.3,3.3h7.2c2.3,0,4.2-1.9,4.2-4.2V5.1
			C31.8,2.8,29.9,0.9,27.6,0.9z"/>
	</g>
	<polygon class="st0" points="17.3,6.4 25.8,6.4 25.8,11.9 22.6,11.9 	"/>
</g>
</svg>
